<!DOCTYPE svg PUBLIC "-//W3C//DTD SVG 1.1//EN" "http://www.w3.org/Graphics/SVG/1.1/DTD/svg11.dtd">
<svg version="1.1" xmlns="http://www.w3.org/2000/svg" xmlns:xlink="http://www.w3.org/1999/xlink" xml:space="preserve" width="600" height="80">

 <polygon points="0,0 0,80 300,80 300,60" fill="rgb(255, 201, 138)" fill-rule="evenodd" />
 <polygon points="0,60 0,80 300,80 300,0" fill="rgb(255, 185, 103)" fill-rule="evenodd" />
 <polygon transform="translate(0, 20)" points="0,0 0,60 300,60 300,60" fill="rgb(255, 156, 44)" fill-rule="evenodd" />
 <polygon transform="translate(0, 20)" points="0,60 0,60 300,60 300,0" fill="rgb(234, 149, 42)" fill-rule="evenodd" />
 <polygon transform="translate(0, 40)" points="0,0 0,40 300,40 300,60" fill="rgb(255, 136, 0)" fill-rule="evenodd" />
 <polygon transform="translate(0, 40)" points="0,40 0,60 300,0 300,40" fill="rgb(255, 136, 0)" fill-rule="evenodd" />

 <polygon transform="translate(300, 0)" points="0,0 0,80 300,80 300,60" fill="rgb(255, 185, 103)" fill-rule="evenodd" />
 <polygon transform="translate(300, 0)" points="0,60 0,80 300,80 300,0" fill="rgb(255, 201, 138)" fill-rule="evenodd" />
 <polygon transform="translate(300, 20)" points="0,0 0,60 300,60 300,60" fill="rgb(234, 149, 42)" fill-rule="evenodd" />
 <polygon transform="translate(300, 20)" points="0,60 0,60 300,60 300,0" fill="rgb(255, 156, 44)" fill-rule="evenodd" />
 <polygon transform="translate(300, 40)" points="0,0 0,40 300,40 300,60" fill="rgb(255, 136, 0)" fill-rule="evenodd" />
 <polygon transform="translate(300, 40)" points="0,40 0,60 300,0 300,40" fill="rgb(255, 136, 0)" fill-rule="evenodd" />

</svg>
